<svg width="43" height="41" viewBox="0 0 43 41" fill="none" xmlns="http://www.w3.org/2000/svg">
<path d="M18.1641 4.77148H22.1641C26.6672 4.77148 30.6738 6.89759 33.2348 10.2008L20.1641 23.2715L13.6641 16.7715L10.6641 19.7715L20.1641 29.2715L42.6641 6.77148L39.6641 3.77148L36.0808 7.35472C32.7796 3.33535 27.7713 0.771484 22.1641 0.771484H18.1641C8.22294 0.771484 0.164062 8.83036 0.164062 18.7715V22.7715C0.164062 32.7126 8.22294 40.7715 18.1641 40.7715H22.1641C32.1052 40.7715 40.1641 32.7126 40.1641 22.7715V18.7715C40.1641 17.6745 40.0659 16.6004 39.878 15.5576L36.1641 19.2715V22.7715C36.1641 30.5035 29.896 36.7715 22.1641 36.7715H18.1641C10.4321 36.7715 4.16406 30.5035 4.16406 22.7715V18.7715C4.16406 11.0395 10.4321 4.77148 18.1641 4.77148Z" fill="#141928"/>
</svg>
