<svg width="49" height="49" viewBox="0 0 49 49" fill="none" xmlns="http://www.w3.org/2000/svg">
<path fill-rule="evenodd" clip-rule="evenodd" d="M16.1641 0.771484C7.32751 0.771484 0.164062 7.93493 0.164062 16.7715V24.7715C0.164062 33.608 7.32751 40.7715 16.1641 40.7715H24.1641C24.225 40.7715 24.4887 40.7711 24.8465 40.7705C26.4936 45.4318 30.9388 48.7715 36.1641 48.7715C42.7915 48.7715 48.1641 43.3989 48.1641 36.7715C48.1641 31.5413 44.8181 27.0927 40.15 25.4493C40.1593 25.2246 40.1641 24.9986 40.1641 24.7715V16.7715C40.1641 7.93493 33.0006 0.771484 24.1641 0.771484H16.1641ZM36.1641 24.7715V16.7715C36.1641 10.1441 30.7915 4.77148 24.1641 4.77148H16.1641C9.53664 4.77148 4.16406 10.1441 4.16406 16.7715V24.7715C4.16406 31.3989 9.53664 36.7715 16.1641 36.7715H24.1641C24.1641 30.1441 29.5366 24.7715 36.1641 24.7715ZM27.1637 13.6467H21.7883V10.772H18.7883V13.6467H14.789C12.8561 13.6467 11.289 15.2137 11.289 17.1467V18.7716C11.289 20.7046 12.8561 22.2716 14.789 22.2716H24.5387C24.8149 22.2716 25.0387 22.4955 25.0387 22.7716V24.3965C25.0387 24.6726 24.8149 24.8965 24.5387 24.8965H12.1641V27.8965H18.7883V30.7716H21.7883V27.8965H24.5387C26.4717 27.8965 28.0387 26.3295 28.0387 24.3965V22.7716C28.0387 20.8386 26.4717 19.2716 24.5387 19.2716H14.789C14.5129 19.2716 14.289 19.0477 14.289 18.7716V17.1467C14.289 16.8706 14.5129 16.6467 14.789 16.6467H27.1637V13.6467ZM44.1641 36.7715C44.1641 41.1898 40.5823 44.7715 36.1641 44.7715C31.7458 44.7715 28.1641 41.1898 28.1641 36.7715C28.1641 32.3532 31.7458 28.7715 36.1641 28.7715C40.5823 28.7715 44.1641 32.3532 44.1641 36.7715ZM34.1641 31.7715H37.1641V36.7715H40.1641V39.7715H37.1641H34.1641V36.7715V31.7715Z" fill="#141928"/>
</svg>
