<svg width="45" height="44" viewBox="0 0 45 44" fill="none" xmlns="http://www.w3.org/2000/svg">
<path d="M25.1642 34.7715C25.1642 35.8761 24.2688 36.7715 23.1642 36.7715H21.1642C20.0597 36.7715 19.1642 35.8761 19.1642 34.7715V32.7715C19.1642 31.667 20.0597 30.7715 21.1642 30.7715H23.1642C24.2688 30.7715 25.1642 31.667 25.1642 32.7715V34.7715Z" fill="#141928"/>
<path fill-rule="evenodd" clip-rule="evenodd" d="M16.8061 3.39797C19.0236 -1.0005 25.3037 -1.00049 27.5212 3.39797L43.4896 35.0703C45.5015 39.0609 42.601 43.7715 38.132 43.7715H6.1953C1.72627 43.7715 -1.1742 39.0609 0.837722 35.0703L16.8061 3.39797ZM23.9495 5.19874L39.9179 36.8711C40.5885 38.2013 39.6217 39.7715 38.132 39.7715H6.1953C4.70564 39.7715 3.7388 38.2013 4.40945 36.8711L20.3778 5.19874C21.117 3.73258 23.2103 3.73258 23.9495 5.19874Z" fill="#141928"/>
<path d="M19.1636 15.7715H25.1636L24.1636 27.7715H20.1636L19.1636 15.7715Z" fill="#141928"/>
</svg>
