<svg xmlns="http://www.w3.org/2000/svg" xmlns:xlink="http://www.w3.org/1999/xlink" version="1.1" id="Layer_1" x="0px" y="0px" style="enable-background:new 0 0 595.28 841.89;" xml:space="preserve" viewBox="271.77 244.24 59.85 61.87">
<style type="text/css">
	.st0{fill:#FCB730;}
	.st1{fill:#171718;}
</style>
<g id="ICON_3" transform="translate(0 13.632)">
	<g id="Group_22637" transform="translate(7.24 2.699)">
		<ellipse id="Ellipse_339_1_" class="st0" cx="294.38" cy="267" rx="22.77" ry="22.77"/>
	</g>
	<g id="Group_22732" transform="translate(0 -13.632)">
		<path id="Fill-1" class="st1" d="M309.16,252.92l-4.57-7.91c-0.27-0.46-0.75-0.75-1.29-0.77c-0.27,0-0.53,0.07-0.77,0.19    c-0.34,0.21-0.59,0.53-0.71,0.9c-0.12,0.39-0.07,0.81,0.13,1.16l2.77,4.76c-1.78-0.33-3.6-0.5-5.41-0.51    c-15.29,0.08-27.62,12.54-27.54,27.83c0.08,15.29,12.54,27.62,27.83,27.54c15.22-0.08,27.53-12.43,27.54-27.66    c0.01-1.7-0.14-3.4-0.45-5.08l-0.13-0.51c-0.14-0.71-0.76-1.22-1.48-1.22h-0.32c-0.78,0.12-1.3,0.86-1.18,1.63    c0.01,0.03,0.01,0.07,0.02,0.1l0.06,0.45c0.26,1.49,0.39,2.99,0.39,4.5c0.09,13.66-10.91,24.81-24.57,24.9    c-13.66,0.09-24.81-10.91-24.9-24.57c-0.09-13.66,10.91-24.81,24.57-24.9c0.08,0,0.15,0,0.23,0c1.58-0.01,3.15,0.14,4.7,0.45    l-4.83,2.76c-0.34,0.21-0.59,0.53-0.71,0.9c-0.12,0.39-0.07,0.81,0.13,1.16c0.27,0.46,0.75,0.75,1.29,0.77    c0.27,0,0.53-0.07,0.77-0.19l7.93-4.57c0.34-0.21,0.59-0.53,0.71-0.9C309.43,253.72,309.36,253.29,309.16,252.92z"/>
		<path id="Path" class="st1" d="M331.61,254.51c-0.08-0.6-0.39-1.15-0.88-1.51c-0.21-0.21-0.44-0.4-0.69-0.57    c-3.09-2.71-3.34-2.77-3.78-2.77c-0.71-0.01-1.39,0.31-1.83,0.88l-25.14,31.5l-5.54-9.26c-0.45-0.5-1.09-0.77-1.76-0.76    c-0.19,0-0.76,0-2.46,1.51c0,0-1.58,1.45-1.64,2.33c-0.05,0.6,0.16,1.19,0.57,1.64l9.01,9.83c0.47,0.51,1.14,0.79,1.83,0.76l0,0    c0.66,0.01,1.29-0.3,1.7-0.82l30.05-30.93C331.45,255.81,331.65,255.16,331.61,254.51"/>
	</g>
</g>
</svg>