<svg xmlns="http://www.w3.org/2000/svg" xmlns:xlink="http://www.w3.org/1999/xlink" version="1.1" id="Layer_1" x="0px" y="0px" style="enable-background:new 0 0 595.28 841.89;" xml:space="preserve" viewBox="158 377.89 278.96 86.04">
<style type="text/css">
	.st0{fill:#D9272D;}
	.st2{font-size:5.8201px;}
</style>
<g>
	<polygon class="st0" points="158,405.31 158,463 168.98,463 168.98,438.75 195.5,438.75 195.5,429.46 168.98,429.46 168.98,414.94    197.02,414.94 197.02,405.31 158,405.31  "/>
	<path class="st0" d="M226.58,433.27c-1.44-0.51-2.62-0.84-4.14-0.84c-6.17,0-11.15,6.17-11.15,15.03V463h-10.47v-39.27h10.39v6.42   h0.17c2.36-4.64,5.74-7.35,10.81-7.35c1.86,0,3.13,0.42,4.39,0.93V433.27L226.58,433.27z"/>
	<path class="st0" d="M430.7,433.27c-1.44-0.51-2.62-0.84-4.14-0.84c-6.17,0-11.15,6.17-11.15,15.03V463h-10.47v-39.27h10.39v6.42   h0.17c2.36-4.64,5.74-7.35,10.81-7.35c1.86,0,3.13,0.42,4.39,0.93V433.27L430.7,433.27z"/>
	<path class="st0" d="M270.41,443.4c0,10.3-8.19,20.52-21.7,20.52c-13.18,0-21.45-9.63-21.45-20.44c0-12.33,10.3-20.69,21.03-20.69   C262.81,422.79,270.41,433.35,270.41,443.4 M238.48,443.32c0,7.01,5.24,11.32,10.56,11.32c6.08,0,10.13-5.74,10.13-11.15   c0-5.74-4.22-11.4-10.05-11.4C243.05,432.08,238.48,436.9,238.48,443.32"/>
	<path class="st0" d="M310.52,463h-10.47v-22.8c0-4.05-1.18-7.26-5.74-7.26c-6.33,0-10.05,6.59-10.05,14.11V463h-10.47v-39.27h10.46   l0.01,6.17c1.69-2.53,4.82-7.1,12.42-7.1c9.46,0,13.85,6.5,13.85,14.61V463L310.52,463z"/>
	<polygon class="st0" points="345.65,463 356.13,463 356.13,423.72 345.65,423.72 345.65,463  "/>
	<path class="st0" d="M399.79,444.75h-29.05c0.59,1.94,1.1,3.38,2.45,5.07c2.53,3.04,6.25,4.47,9.54,4.47   c5.74,0,10.98-2.95,15.54-6.5v10.73c-3.46,1.86-9.97,5.41-17.23,5.41c-12.5,0-21.2-9.55-21.2-20.44c0-10.98,8.78-20.69,20.44-20.69   c11.83,0,19.51,8.45,19.51,20.35V444.75L399.79,444.75z M388.47,437.57c-0.67-4.47-4.56-6.92-7.94-6.92   c-0.85,0-6.67,0.25-8.87,6.92H388.47L388.47,437.57z"/>
	<path class="st0" d="M329.07,411.98v11.82h10.98v7.85h-10.64v17.14c0,4.39,2.36,5.49,5.07,5.49c2.11,0,3.97-0.67,5.57-1.35v9.29   c-3.13,0.84-6.34,1.35-9.55,1.35c-7.09,0-11.57-3.63-11.57-11.24v-20.69h-6.5v-7.85h6.51v-11.87h10.13"/>
	<path class="st0" d="M338.66,399.97c0,2.76-2.24,5-4.99,5c-2.76,0-4.99-2.24-4.99-5c0-2.76,2.23-4.99,4.99-4.99   C336.42,394.98,338.66,397.21,338.66,399.97"/>
	<path class="st0" d="M320.38,390.38c0,2.32-1.88,4.2-4.21,4.2c-2.32,0-4.2-1.88-4.2-4.2c0-2.32,1.88-4.21,4.2-4.21   C318.5,386.17,320.38,388.06,320.38,390.38"/>
	<path class="st0" d="M302.91,384.33c0,2.18-1.76,3.94-3.94,3.94c-2.18,0-3.94-1.76-3.94-3.94c0-2.18,1.76-3.94,3.94-3.94   C301.14,380.39,302.91,382.15,302.91,384.33"/>
	<path class="st0" d="M284.24,381.31c0,1.89-1.53,3.42-3.42,3.42c-1.89,0-3.42-1.53-3.42-3.42c0-1.89,1.53-3.42,3.42-3.42   C282.71,377.89,284.24,379.42,284.24,381.31"/>
	<path class="st0" d="M265.32,381.31c0,1.59-1.29,2.89-2.89,2.89c-1.6,0-2.89-1.29-2.89-2.89c0-1.6,1.29-2.89,2.89-2.89   C264.02,378.42,265.32,379.71,265.32,381.31"/>
	<path class="st0" d="M246.98,383.67c0,1.41-1.14,2.56-2.56,2.56c-1.42,0-2.56-1.15-2.56-2.56c0-1.41,1.14-2.56,2.56-2.56   C245.83,381.11,246.98,382.26,246.98,383.67"/>
	<path class="st0" d="M228.97,390.24c0,0.98-0.79,1.77-1.77,1.77c-0.98,0-1.77-0.79-1.77-1.77c0-0.98,0.79-1.77,1.77-1.77   C228.18,388.47,228.97,389.26,228.97,390.24"/>
	<path class="st0" d="M214.11,400.18c0,0.61-0.49,1.11-1.11,1.11c-0.61,0-1.11-0.5-1.11-1.11c0-0.61,0.5-1.11,1.11-1.11   C213.62,399.07,214.11,399.57,214.11,400.18"/>
	<path class="st0" d="M205.21,411.22c0,0.46-0.37,0.83-0.83,0.83c-0.46,0-0.83-0.37-0.83-0.83c0-0.46,0.37-0.83,0.83-0.83   C204.84,410.39,205.21,410.76,205.21,411.22"/>
	<path class="st0" d="M356.32,413.34c0,3.06-2.52,5.5-5.58,5.5c-3.21,0-5.58-2.6-5.58-5.58c0-3.29,2.75-5.58,5.35-5.58   C352.43,407.69,356.32,409.29,356.32,413.34"/>
	<text transform="matrix(1 0 0 1 432.5388 427.7576)" class="st0 st1 st2">®</text>
</g>
</svg>