<svg xmlns="http://www.w3.org/2000/svg" width="40" height="40" viewBox="0 0 40 40">
    <g fill="none" fillRule="evenodd">
        <circle cx="20" cy="20" r="14" fill="#FFF"/>
        <path fill="#0877B5" d="M20 0c11.046 0 20 8.954 20 20s-8.954 20-20 20S0 31.046 0 20 8.954 0 20 0zm4.403 16.773c-1.765 0-2.948.969-3.433 1.887h-.05v-1.594h-3.48V28.75h3.624v-5.786c0-1.523.29-2.996 2.175-2.996 1.79 0 1.882 1.612 1.887 2.942v5.84h3.624v-6.418c0-3.141-.675-5.559-4.347-5.559zm-9.236.293H11.54V28.75h3.628V17.066zm-1.816-5.816c-1.16 0-2.101.941-2.101 2.101 0 1.16.941 2.121 2.101 2.121 1.16 0 2.101-.96 2.101-2.12 0-1.16-.941-2.102-2.1-2.102z"/>
    </g>
</svg>
