<svg xmlns="http://www.w3.org/2000/svg" xmlns:xlink="http://www.w3.org/1999/xlink" version="1.1" id="Layer_1" x="0px" y="0px" style="enable-background:new 0 0 595.28 841.89;" xml:space="preserve" viewBox="149.62 241.9 66.81 66.54">
<style type="text/css">
	.st0{fill:#FCB730;}
	.st1{fillRule:evenodd;clipRule:evenodd;fill:#171718;}
	.st2{fillRule:evenodd;clipRule:evenodd;}
</style>
<g id="Group_22735" transform="translate(0 -2200.197)">
	<ellipse id="Ellipse_339" class="st0" cx="182.57" cy="2475.66" rx="23.4" ry="23.4"/>
	<path id="Path_22313" class="st1" d="M166.35,2468.24l3.21,2.11v24.03h26.38v-6.72l3.21,2.11v4.68c0,1.74-1.4,3.16-3.14,3.17   h-26.53c-1.74-0.01-3.15-1.43-3.14-3.17l0,0L166.35,2468.24z M193.71,2489.9v1.73h-21.75v-1.73H193.71z M193.3,2485.92l0.41,0.27   v1.46h-21.75v-1.73H193.3z M187.23,2481.93l2.63,1.73h-17.9v-1.73H187.23z M196.01,2453.82c1.74,0.01,3.15,1.43,3.14,3.17l0,0   v22.78l-3.21-2.1v-20.62h-26.38v3.29l-3.21-2.1v-1.26c-0.01-1.74,1.4-3.16,3.14-3.17L196.01,2453.82L196.01,2453.82z    M181.15,2477.94l2.63,1.73h-11.82v-1.73H181.15z M183.75,2459.24v1.29c0.75,0.03,1.49,0.16,2.2,0.38   c0.73,0.22,1.42,0.58,2.01,1.06c-0.61,0.71-1.22,1.4-1.82,2.07c-0.32-0.32-0.71-0.57-1.13-0.74c-0.4-0.17-0.83-0.27-1.26-0.29l0,0   v3.04c0.49,0.15,0.98,0.32,1.49,0.51c0.49,0.18,0.96,0.44,1.37,0.76c0.41,0.31,0.76,0.71,1.02,1.16c0.28,0.53,0.41,1.11,0.39,1.71   c0.02,0.62-0.11,1.24-0.37,1.81c-0.03,0.06-0.07,0.11-0.1,0.16l0,0l-2.52-1.65c0.01-0.05,0.01-0.1,0.01-0.15   c0.03-0.37-0.11-0.74-0.39-0.99c-0.29-0.24-0.63-0.42-0.99-0.52l0,0v0.77l-1.39-0.91v-0.2c-0.22-0.06-0.41-0.14-0.62-0.21l0,0   l-3.04-1.99c-0.03-0.06-0.08-0.1-0.11-0.17c-0.24-0.5-0.36-1.05-0.34-1.6c-0.01-0.58,0.12-1.14,0.38-1.66   c0.24-0.47,0.57-0.89,0.98-1.23c0.4-0.34,0.86-0.6,1.35-0.78c0.48-0.18,0.98-0.28,1.49-0.31l0,0c0,0-0.34-0.98,0-1.31   S183.76,2459.24,183.75,2459.24L183.75,2459.24z"/>
	<path id="Path_28577" class="st2" d="M216.43,2475.37c-0.06-18.4-15-33.28-33.4-33.27c-4.06,0-8.09,0.74-11.88,2.18   c-5.93,2.27-11.1,6.17-14.92,11.25c-4.3,5.72-6.62,12.68-6.61,19.84c0.06,18.4,15,33.28,33.41,33.27   C201.43,2508.65,216.37,2493.77,216.43,2475.37L216.43,2475.37z M207.41,2492.11c-5.54,8-14.65,12.77-24.38,12.77   c-16.32,0.02-29.57-13.18-29.63-29.5c0-5.45,1.51-10.8,4.39-15.43L207.41,2492.11z M212.65,2475.37c0,4.7-1.13,9.33-3.3,13.5   l-49.39-32c5.63-6.97,14.1-11.01,23.06-11.01C199.35,2445.85,212.6,2459.05,212.65,2475.37L212.65,2475.37z"/>
</g>
</svg>