<svg xmlns="http://www.w3.org/2000/svg" width="68.059" height="51.203" viewBox="0 0 68.059 51.203"><defs><style>.a{fill:#fcb92b;stroke:rgba(0,0,0,0);}.b{fill:#161617;}.c{fill:#fff;}</style></defs><g transform="translate(-468.683 -2160.731)"><circle class="a" cx="25.101" cy="25.101" r="25.101" transform="translate(486.039 2161.231)"/><g transform="translate(435.388 2099.348)"><path class="b" d="M71.694,78.193,67.52,73.445a38.7,38.7,0,0,0-10.775-1.67,38.694,38.694,0,0,0-10.774,1.67L40.239,78.27a6.361,6.361,0,0,0-4.252,3.578l-.564.472s-.111.535-.272,1.38c-2.179,5.8-1.927,14.215-1.73,15.138.421,1.969,1.7,2.708,3.442,3.141a4.149,4.149,0,0,0,4.407-1.043c.542-.537,4.213-7.086,4.719-7.923,1.114-1.846,3.96-4.782,10.756-4.671,6.893-.113,9.721,2.908,10.8,4.747.188.429,3.99,7.306,4.537,7.847a4.149,4.149,0,0,0,4.407,1.043c1.741-.433,3.021-1.172,3.442-3.141C80.242,97.392,80.688,77.556,71.694,78.193Z" transform="translate(0 0)"/><circle class="b" cx="8.579" cy="8.579" r="8.579" transform="translate(33.411 71.775)"/><path class="b" d="M174.316,80.353a8.579,8.579,0,1,0,8.578-8.578A8.579,8.579,0,0,0,174.316,80.353Z" transform="translate(-111.394 0)"/><path class="c" d="M62.4,95.42H60.213V93.237a.826.826,0,0,0-.824-.824h-.823a.826.826,0,0,0-.823.824V95.42H55.558a.827.827,0,0,0-.823.825v.823a.826.826,0,0,0,.823.824h2.183v2.183a.826.826,0,0,0,.823.823h.823a.826.826,0,0,0,.824-.823V97.892H62.4a.826.826,0,0,0,.823-.824v-.823A.827.827,0,0,0,62.4,95.42Z" transform="translate(-16.936 -16.303)"/><path class="c" d="M210.179,86.235a1.8,1.8,0,1,1-1.8-1.8A1.8,1.8,0,0,1,210.179,86.235Z" transform="translate(-136.876 -9.998)"/><path class="c" d="M210.179,125.431a1.8,1.8,0,1,1-1.8-1.8A1.8,1.8,0,0,1,210.179,125.431Z" transform="translate(-136.876 -40.96)"/><path class="c" d="M189.021,104.028a1.8,1.8,0,1,1-1.8,1.8A1.8,1.8,0,0,1,189.021,104.028Z" transform="translate(-121.586 -25.477)"/><path class="c" d="M227.977,104.028a1.8,1.8,0,1,1-1.8,1.8A1.8,1.8,0,0,1,227.977,104.028Z" transform="translate(-152.358 -25.477)"/><path class="c" d="M138.2,105.272c0,1.278-1.037,1.766-2.316,1.766s-2.316-.487-2.316-1.766,1.037-1.768,2.316-1.768S138.2,103.992,138.2,105.272Z" transform="translate(-79.206 -25.063)"/><path class="c" d="M130.749,95.476a.9.9,0,1,1-.9-.9A.9.9,0,0,1,130.749,95.476Zm-9.133-.9a.9.9,0,1,0,.9.9A.9.9,0,0,0,121.616,94.579Zm7.686,5.783a.9.9,0,1,0,.9.9A.9.9,0,0,0,129.3,100.362Zm-7.138,0a.9.9,0,1,0,.9.9A.9.9,0,0,0,122.165,100.362Z" transform="translate(-69.057 -18.013)"/></g></g></svg>