<svg xmlns="http://www.w3.org/2000/svg" width="69.049" height="51.203" viewBox="0 0 69.049 51.203"><defs><style>.a{fill:#fcb92b;stroke:rgba(0,0,0,0);}.b{fill:#161617;}</style></defs><g transform="translate(-103.552 -2145.094)"><circle class="a" cx="25.101" cy="25.101" r="25.101" transform="translate(121.899 2145.594)"/><g transform="translate(103.552 2148.594)"><path class="b" d="M33.747,47.306a2.2,2.2,0,1,1-2.2,2.2,2.2,2.2,0,0,1,2.2-2.2m-2.023-.454-.211.142.018.015c-.056.05-.118.087-.171.14a3.358,3.358,0,0,0,4.77,4.718c.052-.054.089-.117.138-.173l.017.017.136-.208a2.88,2.88,0,0,0,.18-.277L45.7,37.4,31.991,46.671a3.026,3.026,0,0,0-.267.18" transform="translate(-8.857 -18.158)"/><path class="b" d="M43.984,23.414A29.271,29.271,0,0,0,14.76,52.665c0,.188.01.377.017.564l.01.282.019.669h9.212v-3.1H18.878a25.155,25.155,0,0,1,6.24-15.06l.052.051,3.085,3.086.486.488.487-.488,1.264-1.266.484-.487-.486-.486-3.082-3.085-.052-.054A25.109,25.109,0,0,1,42.4,27.532v5.144h3.165V27.532A25.111,25.111,0,0,1,60.611,33.78l-.07.07-3.082,3.086-.486.487.486.486,1.266,1.264.486.487.487-.487,3.082-3.085.07-.067a25.143,25.143,0,0,1,6.241,15.06h-5.14v3.1h9.21l.019-.669.01-.282c.008-.187.018-.376.018-.564A29.27,29.27,0,0,0,43.984,23.414" transform="translate(-14.76 -23.414)"/></g></g></svg>