<svg xmlns="http://www.w3.org/2000/svg" width="56.649" height="51.203" viewBox="0 0 56.649 51.203"><defs><style>.a{fill:#fcb92b;stroke:rgba(0,0,0,0);}.b{fill:#161617;}</style></defs><g transform="translate(-129.06 -2191.179)"><circle class="a" cx="25.101" cy="25.101" r="25.101" transform="translate(135.007 2191.679)"/><g transform="translate(129.06 2197.881)"><path class="b" d="M51.05,23.26a30.887,30.887,0,0,0-43.636,0,.788.788,0,0,0,0,1.121l3.562,3.561a.791.791,0,0,0,1.119,0,24.269,24.269,0,0,1,34.285,0,.808.808,0,0,0,1.119,0L51.05,24.38a.791.791,0,0,0,0-1.12Z" transform="translate(-7.179 -14.234)"/><path class="b" d="M31.721,29.423A19.289,19.289,0,0,0,17.991,35.1a.792.792,0,0,0,0,1.12l3.559,3.56a.808.808,0,0,0,1.12,0,12.806,12.806,0,0,1,18.1,0,.791.791,0,0,0,1.119,0l3.562-3.56a.791.791,0,0,0,0-1.12A19.279,19.279,0,0,0,31.721,29.423Z" transform="translate(-9.664 -17.801)"/><path class="b" d="M34.463,44.642a5.021,5.021,0,1,0,5.022,5.021A5.026,5.026,0,0,0,34.463,44.642Z" transform="translate(-12.408 -21.376)"/></g></g></svg>