<svg xmlns="http://www.w3.org/2000/svg" xmlns:xlink="http://www.w3.org/1999/xlink" width="84" height="84" viewBox="0 0 84 84"><defs><style>.a,.b{fill:none;}.a{clipRule:evenodd;}.c{clip-path:url(#a);}.d{clip-path:url(#b);}.e{fill:#333;}.f{clip-path:url(#c);}</style><clipPath id="a"><path class="a" d="M218.251-726.234l6.549-10.652-2.911-2.914-10.65,6.551-1.429,4.568-19.485,19.487,3.874,3.873,19.488-19.487Zm-68.183,50.183a7.783,7.783,0,0,0,0,10.985,7.789,7.789,0,0,0,10.985,0l2.984-2.981,18.292-18.294a2.123,2.123,0,0,1,0-3.01,2.123,2.123,0,0,1,3.01,0l1.31-1.307-10.991-10.988-1.3,1.307a2.137,2.137,0,0,1,0,3.013,2.132,2.132,0,0,1-3.013,0l-18.295,18.291Zm7.931,5.8,17.56-17.556a.977.977,0,0,1,1.374,0,.977.977,0,0,1,0,1.374l-17.56,17.559a.972.972,0,0,1-1.374,0,.981.981,0,0,1,0-1.377Zm-4.372-4.366,17.563-17.559a.975.975,0,0,1,1.374,0,.977.977,0,0,1,0,1.374L155-673.248a.972.972,0,0,1-1.374,0,.977.977,0,0,1,0-1.374Z"/></clipPath><clipPath id="b"><path class="b" d="M0,7003H375V-4747H0Z"/></clipPath><clipPath id="c"><path class="a" d="M173.3-725.093c1.115-4.8.748-10.731-3.129-14.608a14.987,14.987,0,0,0-14.829-3.656l7.134,7.134a2.994,2.994,0,0,1,0,4.218l-5.484,5.483a2.993,2.993,0,0,1-4.217,0l-7.131-7.137a14.982,14.982,0,0,0,3.653,14.833c3.877,3.877,9.809,4.244,14.605,3.126l36.8,36.8c-1.118,4.8-.751,10.729,3.126,14.605a14.984,14.984,0,0,0,14.829,3.656l-7.137-7.134a3,3,0,0,1,0-4.218L217-677.478a2.99,2.99,0,0,1,4.214,0l7.139,7.137a15,15,0,0,0-3.656-14.835c-3.88-3.877-9.806-4.244-14.611-3.123Z"/></clipPath></defs><g transform="translate(-145 -4112)"><g class="c" transform="translate(0 4856)"><g class="d"><path class="e" d="M146.044-740.8H225.8v79.755H146.044Z"/></g></g><g class="f" transform="translate(0 4856)"><g class="d"><path class="e" d="M143.068-745.931h87.864v87.863H143.068Z"/></g></g></g></svg>