<svg xmlns="http://www.w3.org/2000/svg" width="72.742" height="57.91" viewBox="0 0 72.742 57.91"><defs><style>.a{fill:#fcb832;stroke:rgba(0,0,0,0);}.b{fillRule:evenodd;}</style></defs><g transform="translate(-464 -2155.819)"><circle class="a" cx="25.101" cy="25.101" r="25.101" transform="translate(486.039 2161.231)"/><path class="b" d="M50.656,12.08l4.5-7.328-2-2L45.832,7.254,44.849,10.4,31.445,23.8l2.665,2.665L47.516,13.061Zm-31.144.955c.769-3.311.516-7.4-2.157-10.071A10.332,10.332,0,0,0,7.131.444l4.918,4.918a2.064,2.064,0,0,1,0,2.908l-3.78,3.78a2.064,2.064,0,0,1-2.908,0L.445,7.13A10.328,10.328,0,0,0,2.964,17.355c2.673,2.673,6.762,2.926,10.069,2.155L38.4,44.878c-.771,3.309-.518,7.4,2.155,10.069a10.33,10.33,0,0,0,10.224,2.52l-4.92-4.918a2.067,2.067,0,0,1,0-2.908l3.78-3.78a2.061,2.061,0,0,1,2.906,0l4.922,4.92a10.337,10.337,0,0,0-2.52-10.228c-2.675-2.673-6.76-2.926-10.073-2.153ZM3.752,46.6a5.343,5.343,0,0,0,7.557,7.557l2.053-2.051L25.945,39.524a1.464,1.464,0,0,1,2.071-2.071l.9-.9L21.356,29l-.9.9a1.466,1.466,0,1,1-2.073,2.073L5.8,44.55ZM9.208,50.59l12.08-12.078a.668.668,0,0,1,.945.945l-12.08,12.08a.669.669,0,1,1-.945-.947Zm-3.008-3,12.082-12.08a.668.668,0,0,1,.945.945L7.145,48.531a.668.668,0,0,1-.945-.945Z" transform="translate(463.999 2155.818)"/></g></svg>