<svg xmlns="http://www.w3.org/2000/svg" width="40" height="40" viewBox="0 0 40 40">
    <g fill="none" fillRule="evenodd">
        <circle cx="20" cy="20" r="14" fill="#FFF"/>
        <path fill="#01ACEB" d="M20 0c11.046 0 20 8.954 20 20s-8.954 20-20 20S0 31.046 0 20 8.954 0 20 0zm3.845 12.5c-2.271 0-4.099 1.84-4.099 4.099 0 .317.038.634.102.939-3.401-.178-6.434-1.802-8.452-4.29-.355.61-.558 1.308-.558 2.07 0 1.42.723 2.677 1.827 3.413-.673-.025-1.307-.216-1.853-.52v.05c0 1.993 1.409 3.642 3.287 4.023-.343.089-.71.14-1.079.14-.266 0-.52-.026-.774-.064.52 1.625 2.03 2.805 3.833 2.843-1.409 1.104-3.173 1.751-5.09 1.751-.342 0-.659-.012-.989-.05 1.815 1.167 3.972 1.84 6.294 1.84 7.538 0 11.663-6.244 11.663-11.663 0-.177 0-.355-.013-.533.8-.584 1.498-1.307 2.056-2.12-.736.318-1.536.547-2.36.635.85-.507 1.497-1.307 1.802-2.258-.787.47-1.676.812-2.602.99-.749-.8-1.815-1.295-2.995-1.295z"/>
    </g>
</svg>
