<svg xmlns="http://www.w3.org/2000/svg" width="40" height="40" viewBox="0 0 40 40">
    <g fill="none" fillRule="evenodd">
        <circle cx="20" cy="20" r="14" fill="#FFF"/>
        <path fill="#C33" d="M20 0c11.046 0 20 8.954 20 20s-8.954 20-20 20S0 31.046 0 20 8.954 0 20 0zm-.229 12.5h-.71c-1.401.007-6.547.061-7.98.447-.917.247-1.64.975-1.885 1.899-.399 1.497-.441 4.449-.446 5.057v.162c.002.439.032 3.562.446 5.117.245.924.968 1.621 1.886 1.868 1.432.386 6.578.44 7.98.448h.71c1.401-.008 6.547-.062 7.98-.448.917-.247 1.64-.944 1.885-1.868.414-1.555.444-4.678.446-5.117v-.103c-.002-.438-.032-3.561-.446-5.116-.245-.924-.968-1.652-1.886-1.899-1.432-.386-6.578-.44-7.98-.447zm-2.536 4.342l5.575 3.172-5.575 3.172v-6.344z"/>
    </g>
</svg>
